<svg width="512" height="512" viewBox="0 0 512 523" fill="none" xmlns="http://www.w3.org/2000/svg">
    <circle cx="256" cy="267" r="256" fill="currentColor"/>
    <path d="M227.483 309.754V138.172H282.854V309.754C282.854 326.388 279.095 340.743 271.575 352.82C264.17 364.783 254.087 374.069 241.326 380.677C228.68 387.171 214.381 390.418 198.431 390.418C182.024 390.418 167.441 387.684 154.681 382.215C141.92 376.632 131.894 368.144 124.603 356.751C117.425 345.244 113.836 330.604 113.836 312.83H169.549C169.549 321.603 170.631 328.553 172.796 333.68C175.075 338.693 178.379 342.225 182.708 344.275C187.037 346.326 192.278 347.352 198.431 347.352C204.355 347.352 209.482 345.927 213.812 343.079C218.141 340.117 221.502 335.844 223.895 330.262C226.287 324.565 227.483 317.729 227.483 309.754Z" fill="white"/>
    <path d="M282.068 179.565V325H228.577V140.088H278.821L282.068 179.565ZM275.062 226.05L261.731 226.392C261.731 212.492 263.44 200.016 266.858 188.965C270.276 177.913 275.118 168.514 281.385 160.767C287.765 152.905 295.341 146.924 304.114 142.822C313.001 138.721 322.799 136.67 333.509 136.67C342.168 136.67 350.086 137.923 357.264 140.43C364.441 142.936 370.594 146.981 375.721 152.563C380.962 158.032 384.949 165.324 387.684 174.438C390.418 183.439 391.785 194.548 391.785 207.764V325H338.123V207.593C338.123 199.845 337.041 193.864 334.876 189.648C332.711 185.433 329.521 182.471 325.306 180.762C321.204 179.053 316.191 178.198 310.267 178.198C304 178.198 298.646 179.451 294.202 181.958C289.759 184.351 286.113 187.712 283.265 192.041C280.416 196.37 278.309 201.44 276.941 207.251C275.688 213.062 275.062 219.328 275.062 226.05Z" fill="white"/>
    <rect x="225" y="194" width="60" height="40" fill="currentColor"/>
</svg>
